mtllib input1.mtl
o Pyramid
v 10.0 2.375 3.375
v 11.25 2.375 5.875
v 8.75 2.375 5.875
v 10.0 4.875 4.875
vt 0.250000 0.490000
vt 0.250000 0.250000
vt 0.457846 0.130000
vt 0.750000 0.490000
vt 0.957846 0.130000
vt 0.542154 0.130000
vt 0.042154 0.130000
vn 0.8639 0.2592 -0.4319
vn 0.0000 -1.0000 0.0000
vn -0.0000 0.3714 0.9285
vn -0.8639 0.2592 -0.4319
usemtl bleu
s off
f 1/1/1 4/2/1 2/3/1
f 1/4/2 2/5/2 3/6/2
f 2/3/3 4/2/3 3/7/3
f 3/7/4 4/2/4 1/1/4
o Pyramid
v 10.0 2.375 3.375
v 11.25 2.375 5.875
v 8.75 2.375 5.875
v 10.0 4.875 4.875
vt 0.250000 0.490000
vt 0.250000 0.250000
vt 0.457846 0.130000
vt 0.750000 0.490000
vt 0.957846 0.130000
vt 0.542154 0.130000
vt 0.042154 0.130000
vn 0.8639 0.2592 -0.4319
vn 0.0000 -1.0000 0.0000
vn -0.0000 0.3714 0.9285
vn -0.8639 0.2592 -0.4319
usemtl bleu
s off
f 1/1/1 4/2/1 2/3/1
f 1/4/2 2/5/2 3/6/2
f 2/3/3 4/2/3 3/7/3
f 3/7/4 4/2/4 1/1/4
